<svg xmlns="http://www.w3.org/2000/svg" xmlns:xlink="http://www.w3.org/1999/xlink" viewBox="0 0 360.09 1402"><defs><style>.cls-1,.cls-7{fill:#fff;}.cls-2{fill:url(#未命名的渐变_6);}.cls-3{font-size:99.02px;font-family:FZLTHK--GBK1-0, FZLanTingHei-R-GBK;}.cls-4,.cls-5,.cls-6{fill:none;stroke-miterlimit:10;}.cls-4,.cls-5{stroke:#000;}.cls-5{stroke-width:3px;}.cls-6{stroke:#fff;stroke-width:1.5px;}.cls-7{font-size:24px;font-family:FZLTCHK--GBK1-0, FZLanTingHei-B-GBK;letter-spacing:0.02em;}.cls-8{font-size:22px;letter-spacing:0.02em;}</style><linearGradient id="未命名的渐变_6" x1="187.46" y1="755.12" x2="167.36" y2="776.31" gradientTransform="matrix(0.49, 0.6, -0.49, 0.6, 438, 200.76)" gradientUnits="userSpaceOnUse"><stop offset="0" stop-color="#fff"/><stop offset="1" stop-opacity="0.9"/></linearGradient></defs><g id="图层_2" data-name="图层 2"><g id="图层_1-2" data-name="图层 1"><rect x="139.01" y="475.27" width="51.71" height="92.05" transform="translate(-356.43 686.15) rotate(-90)"/><path d="M147.17,677.89a2,2,0,0,1-2-1.65,56.35,56.35,0,0,0-1.82-7.17,2,2,0,0,1,.32-1.82l.07-.09A147.88,147.88,0,0,1,122.55,676a2.3,2.3,0,0,1-.63.1,2,2,0,0,1-1.84-1.22,48.12,48.12,0,0,0-3.52-6.65,2,2,0,0,1-.17-1.79,2,2,0,0,1,1.34-1.2c17.5-4.77,32.23-12.46,43.8-22.87q-.51-1.23-1.08-2.43c-10.17,7.73-22.61,14-37,18.63a1.86,1.86,0,0,1-.61.1,2,2,0,0,1-1.83-1.19c-.5-1.12-1.37-2.8-2.59-5l-1-1.63a2,2,0,0,1,1.21-3c14.37-3.74,26.66-9.36,36.58-16.71q-.6-.81-1.26-1.59A146.38,146.38,0,0,1,122.76,642a2,2,0,0,1-2.38-1.14,51.56,51.56,0,0,0-3.34-6.48,2,2,0,0,1,1.3-3c12.9-2.67,24.17-6.83,33.62-12.38H132.71a2,2,0,0,1-2-2v-6.14a2,2,0,0,1,2-2h63.58a2,2,0,0,1,2,1.61v-7.11H130.46v8.1a2,2,0,0,1-2,2h-7.73a2,2,0,0,1-2-2V594.79a2,2,0,0,1,2-2h39.14c-1-2.59-2.12-5.16-3.24-7.69a2,2,0,0,1,.06-1.73,2,2,0,0,1,1.39-1l8.22-1.58a1.64,1.64,0,0,1,.38,0,2,2,0,0,1,1.79,1.11c1.12,2.23,2.62,5.83,4.6,11h34.8a2,2,0,0,1,2,2v16.64a2,2,0,0,1-2,2h-7.62a2,2,0,0,1-2-1.61V617a2,2,0,0,1-2,2H170c-2.2,1.69-4.41,3.29-6.62,4.77a63.22,63.22,0,0,1,6.33,9.26c10-4.46,19-9,26.83-13.5a2,2,0,0,1,1-.27,2,2,0,0,1,1.65.86l4.25,6.14a2,2,0,0,1-.74,2.93c-4.89,2.44-10.17,5-15.73,7.74,4.51,11.81,12.43,19.75,24.16,24.25a2,2,0,0,1,.92,3c-.46.67-1.17,1.64-2.1,2.91-1.29,1.74-2.23,3.07-2.8,4a2,2,0,0,1-1.69.92,2,2,0,0,1-.9-.22c-13.45-6.85-22.69-17-27.5-30.24L174,642.9a45.54,45.54,0,0,1,2.1,14.4c.16,7.29-1.45,12.75-4.8,16.16-2.74,2.81-6.61,4.23-11.5,4.23h-.17C155.12,677.82,150.91,677.89,147.17,677.89Zm-1.8-11.43c4.71.2,8.61.3,11.6.3h.16c.35,0,.69,0,1,0a5.87,5.87,0,0,0,4.48-1.56c1.41-1.49,2-4.17,1.85-8,0-1.25-.06-2.49-.17-3.73a106.38,106.38,0,0,1-19.23,12.93h.29Z"/><path class="cls-1" d="M166.68,582.71q1.68,3.36,4.75,11.39l-2.77.69h39.21v16.64h-7.62v-10.1H128.46v10.1h-7.73V594.79h42.09q-2.08-5.34-4.36-10.5l8.22-1.58m29.61,28.12V617H169.35q-4.46,3.46-8.91,6.34a61.15,61.15,0,0,1,8.42,12.28,306.62,306.62,0,0,0,28.71-14.36l4.26,6.14q-8.12,4.07-17.33,8.51,6.84,19.82,25.95,27.14c-.47.66-1.16,1.61-2.08,2.87q-2,2.67-2.87,4.06-20.61-10.5-27.24-31.19l-6.73,3.07a43.59,43.59,0,0,1,2.57,15.44q.41,18.42-14.3,18.42h-.15q-6.84.19-12.48.2a58.67,58.67,0,0,0-1.88-7.43c4.75.2,8.65.3,11.68.3.41,0,.8,0,1.18,0q8.9,0,8.33-11.64a43.27,43.27,0,0,0-.69-7.62q-16.74,15.54-43.87,24.56a50.39,50.39,0,0,0-3.66-6.93q27.61-7.53,45.65-24.26a56.6,56.6,0,0,0-2.78-6q-15.54,12.48-38.32,19.81c-.53-1.19-1.42-2.9-2.67-5.15l-1-1.68q23.16-6,38.81-18.22a37.37,37.37,0,0,0-3.56-4.56,141.16,141.16,0,0,1-32.18,13,54.22,54.22,0,0,0-3.47-6.73q23.87-4.95,40-16.34h-26v-6.14h63.58m-29.61-32.12a3.91,3.91,0,0,0-.76.07l-8.22,1.59a4,4,0,0,0-2.9,5.54q1.06,2.42,2.09,4.88H120.73a4,4,0,0,0-4,4v16.64a4,4,0,0,0,4,4h8V617a4,4,0,0,0,4,4h11.17a116.45,116.45,0,0,1-25.94,8.42,4,4,0,0,0-2.61,6,49.72,49.72,0,0,1,3.21,6.24,4,4,0,0,0,3.68,2.42,4.06,4.06,0,0,0,1.08-.14c4.63-1.3,9-2.73,13.25-4.26A122,122,0,0,1,118.14,646a4,4,0,0,0-2.42,5.92l.94,1.61c1.19,2.12,2,3.74,2.5,4.8a4,4,0,0,0,4.88,2.18A142.06,142.06,0,0,0,144.81,652a115.76,115.76,0,0,1-27.61,11.3,4,4,0,0,0-2.33,6,46.31,46.31,0,0,1,3.37,6.38,4,4,0,0,0,3.68,2.43,4,4,0,0,0,1.26-.21,153.25,153.25,0,0,0,18.53-7.47,51.81,51.81,0,0,1,1.52,6.16,4,4,0,0,0,3.94,3.3c3.74,0,8-.07,12.53-.2h.1c5.45,0,9.8-1.62,12.93-4.83,3.72-3.8,5.53-9.72,5.38-17.6a49.07,49.07,0,0,0-1.05-10.58c5.34,11.53,14.27,20.54,26.62,26.83a3.93,3.93,0,0,0,1.81.44,4,4,0,0,0,3.37-1.84c.55-.85,1.46-2.14,2.72-3.84.94-1.28,1.66-2.27,2.14-3a4,4,0,0,0-1.84-6,37.85,37.85,0,0,1-22.33-21.4c5-2.41,9.67-4.74,14.07-6.93a4,4,0,0,0,1.5-5.86L200.86,619a4.15,4.15,0,0,0-.75-.81,3.77,3.77,0,0,0,.18-1.17v-1.54h7.58a4,4,0,0,0,4-4V594.79a4,4,0,0,0-4-4H174.44c-1.76-4.53-3.13-7.77-4.18-9.87a4,4,0,0,0-3.58-2.21Zm-34.22,26.62h63.79v1.5H132.46v-1.51ZM170.71,621h19.1c-5.88,3.16-12.31,6.33-19.23,9.47a65.34,65.34,0,0,0-4.26-6.26c1.46-1,2.93-2.1,4.39-3.21ZM152.24,664.7a109.85,109.85,0,0,0,10.26-7.09c.11,3-.35,5.24-1.32,6.26-.22.23-.9.94-3,.94-.27,0-.56,0-.86,0H157c-1.38,0-3,0-4.73-.06Z"/><path d="M191.53,797.81a2,2,0,0,1-2-2v-2.36H138.77v2.36a2,2,0,0,1-2,2h-7.42a2,2,0,0,1-2-2V763.92a2,2,0,0,1,2-2H199a2,2,0,0,1,2,2v31.89a2,2,0,0,1-2,2Zm-2-13.41V782H138.77v2.44Zm0-11.09v-2.44H138.77v2.44Zm-70.58-13a2,2,0,0,1-2-2v-5.15a2,2,0,0,1,2-2h38.9V749h-35a2,2,0,0,1-2-2v-4.66a2,2,0,0,1,2-2h35v-2.14H125.19a2,2,0,0,1-2-2v-4.75a2,2,0,0,1,2-2h32.66v-2H119a2,2,0,0,1-2-2v-5.25a2,2,0,0,1,2-2h38.9v-1.94H125.58a2,2,0,0,1-2-2v-5.05a2,2,0,0,1,2-2h32.27v-4.83a2,2,0,0,1,2-2h7.72a2,2,0,0,1,2,2v4.83h31.57a2,2,0,0,1,2,2v9h7.21a2,2,0,0,1,2,2v5.25a2,2,0,0,1-2,2h-7.21v8.79a2,2,0,0,1-2,2H169.57v2.14H205.2a2,2,0,0,1,2,2V747a2,2,0,0,1-2,2H169.57v2.14h40.68a2,2,0,0,1,2,2v5.15a2,2,0,0,1-2,2Zm72.86-30.84v-2H169.57v2Zm0-11.29v-1.94H169.57v1.94Z"/><path class="cls-1" d="M167.57,702.33v6.83h33.57v11h9.21v5.25h-9.21v10.79H167.57v6.14H205.2V747H167.57v6.14h42.68v5.15H119v-5.15h40.9V747h-37v-4.66h37v-6.14H125.19v-4.75h34.66v-6H119v-5.25h40.9v-5.94H125.58v-5.05h34.27v-6.83h7.72m0,17.82h26.24v-5.94H167.57v5.94m0,11.29h26.24v-6H167.57v6M199,763.92v31.89h-7.43v-4.36H136.77v4.36h-7.42V763.92H199m-62.19,11.39h54.76v-6.44H136.77v6.44m0,11.09h54.76V780H136.77v6.44m30.8-88.07h-7.72a4,4,0,0,0-4,4v2.83H125.58a4,4,0,0,0-4,4v5.05a4,4,0,0,0,.51,1.94H119a4,4,0,0,0-4,4v5.25a4,4,0,0,0,4,4h2.8a4,4,0,0,0-.56,2v4.75a3.94,3.94,0,0,0,.69,2.25,4,4,0,0,0-3.07,3.89V747a4,4,0,0,0,.62,2.14H119a4,4,0,0,0-4,4v5.15a4,4,0,0,0,4,4h6.75a3.89,3.89,0,0,0-.35,1.64v31.89a4,4,0,0,0,4,4h7.42a4,4,0,0,0,4-4v-.36h46.76v.36a4,4,0,0,0,4,4H199a4,4,0,0,0,4-4V763.92a4,4,0,0,0-.35-1.64h7.64a4,4,0,0,0,4-4v-5.15a4,4,0,0,0-4-4h-1.67a4,4,0,0,0,.62-2.14v-4.66a4,4,0,0,0-4-4h-.68a4,4,0,0,0,.62-2.14V729.4h5.21a4,4,0,0,0,4-4v-5.25a4,4,0,0,0-4-4h-5.21v-7a4,4,0,0,0-4-4H171.57v-2.83a4,4,0,0,0-4-4Z"/><rect class="cls-2" x="140.68" y="633.59" width="20.33" height="260.22" transform="translate(-495.83 330.34) rotate(-45)"/><text class="cls-3"><tspan x="114.99" y="664.9">家</tspan><tspan x="114.99" y="783.72">書</tspan></text><line class="cls-4" x1="51.1" y1="678.87" x2="235.2" y2="862.97"/><rect class="cls-1" x="100.8" y="642.79" width="55.84" height="308.23" transform="translate(-525.8 324.42) rotate(-45)"/><text/><line class="cls-5" x1="166.47" y1="432.35" x2="166.47"/><line class="cls-5" x1="167.86" y1="920.83" x2="167.86" y2="1402"/><rect class="cls-4" x="136.52" y="473.16" width="56.68" height="96.23" transform="translate(-356.41 686.14) rotate(-90)"/><polyline class="cls-6" points="210.93 494.94 164.93 511.94 164.93 511.94 118.15 494.69"/><text class="cls-7" transform="translate(130.42 536.03)">100<tspan class="cls-8" x="48.1" y="0">封</tspan></text></g></g></svg>